# 3ds Max Wavefront OBJ Exporter v0.97b - (c)2007 guruware
# File Created: 03.02.2012 21:57:34

#
# object Plane001
#

v  -6.0436 9.6486 0.0000
v  -6.0436 6.3673 0.0000
v  -2.0887 9.6486 3.4655
v  -2.0887 6.3673 4.0811
v  1.8662 9.6486 3.4655
v  1.8662 6.3673 4.0811
v  5.8212 9.6486 0.0000
v  5.8212 6.3673 0.0000
v  -6.0436 12.9299 0.0000
v  -2.0887 12.9299 2.0711
v  1.8662 12.9299 2.0711
v  5.8212 12.9299 0.0000
v  -6.0436 16.2111 0.0000
v  -2.0887 16.2111 0.0000
v  1.8662 16.2111 0.0000
v  5.8212 16.2111 0.0000
# 16 vertices

vn -0.6032 0.0652 0.7949
vn -0.6798 0.0464 0.7319
vn -0.3513 0.2545 0.9010
vn -0.3688 0.1714 0.9136
vn 0.3128 0.2445 0.9178
vn 0.3484 0.1492 0.9254
vn 0.6790 0.0235 0.7337
vn 0.7181 -0.0000 0.6959
vn -0.3403 0.1285 0.9315
vn -0.2619 0.4122 0.8726
vn 0.1731 0.4092 0.8959
vn 0.5288 0.0676 0.8461
vn 0.0000 -0.0000 1.0000
vn -0.1298 0.4252 0.8957
vn 0.0000 0.5338 0.8456
vn 0.2712 0.2584 0.9272
# 16 vertex normals

vt 0.0000 0.6667 0.0000
vt 0.0000 1.0000 0.0000
vt 0.3333 0.6667 0.0000
vt 0.3333 1.0000 0.0000
vt 0.6667 0.6667 0.0000
vt 0.6667 1.0000 0.0000
vt 1.0000 0.6667 0.0000
vt 1.0000 1.0000 0.0000
vt 0.0000 0.3333 0.0000
vt 0.3333 0.3333 0.0000
vt 0.6667 0.3333 0.0000
vt 1.0000 0.3333 0.0000
vt 0.0000 0.0000 0.0000
vt 0.3333 0.0000 0.0000
vt 0.6667 0.0000 0.0000
vt 1.0000 0.0000 0.0000
# 16 texture coords

g Plane001
f 1/1/1 2/2/2 3/3/3 
f 4/4/4 3/3/3 2/2/2 
f 3/3/3 4/4/4 5/5/5 
f 6/6/6 5/5/5 4/4/4 
f 5/5/5 6/6/6 7/7/7 
f 8/8/8 7/7/7 6/6/6 
f 9/9/9 1/1/1 10/10/10 
f 3/3/3 10/10/10 1/1/1 
f 10/10/10 3/3/3 11/11/11 
f 5/5/5 11/11/11 3/3/3 
f 11/11/11 5/5/5 12/12/12 
f 7/7/7 12/12/12 5/5/5 
f 13/13/13 9/9/9 14/14/14 
f 10/10/10 14/14/14 9/9/9 
f 14/14/14 10/10/10 15/15/15 
f 11/11/11 15/15/15 10/10/10 
f 15/15/15 11/11/11 16/16/16 
f 12/12/12 16/16/16 11/11/11 
# 18 faces

